<svg xmlns="http://www.w3.org/2000/svg" viewBox="0 0 773.99 584.27"><defs><style>.cls-1,.cls-2,.cls-3,.cls-4,.cls-5{fill:none;stroke:#fff;stroke-linecap:round;stroke-miterlimit:10;stroke-width:5px;}.cls-2{stroke-dasharray:0 15.09;}.cls-3{stroke-dasharray:0 14.77;}.cls-4{stroke-dasharray:0 14.81;}.cls-5{stroke-dasharray:0 14.89;}.cls-6{fill:#fff;}</style></defs><g id="레이어_2" data-name="레이어 2"><g id="레이어_1-2" data-name="레이어 1"><line class="cls-1" x1="579.42" y1="194.57" x2="579.42" y2="194.57"/><path class="cls-2" d="M578.83,179.5c-7.68-99-90.48-177-191.49-177-103.55,0-188,82-191.93,184.53"/><line class="cls-1" x1="195.27" y1="194.57" x2="195.27" y2="194.57"/><line class="cls-3" x1="210.04" y1="194.57" x2="572.03" y2="194.57"/><line class="cls-1" x1="771.49" y1="581.77" x2="771.49" y2="581.77"/><line class="cls-4" x1="756.68" y1="581.77" x2="586.34" y2="581.77"/><line class="cls-1" x1="578.93" y1="581.77" x2="578.93" y2="581.77"/><line class="cls-5" x1="578.93" y1="566.88" x2="578.93" y2="202.02"/><line class="cls-1" x1="578.93" y1="194.57" x2="578.93" y2="194.57"/><line class="cls-4" x1="593.74" y1="194.57" x2="764.08" y2="194.57"/><line class="cls-1" x1="771.49" y1="194.57" x2="771.49" y2="194.57"/><line class="cls-5" x1="771.49" y1="209.47" x2="771.49" y2="574.33"/><line class="cls-1" x1="195.06" y1="581.77" x2="195.06" y2="581.77"/><line class="cls-4" x1="180.25" y1="581.77" x2="9.91" y2="581.77"/><line class="cls-1" x1="2.5" y1="581.77" x2="2.5" y2="581.77"/><line class="cls-5" x1="2.5" y1="566.88" x2="2.5" y2="202.02"/><line class="cls-1" x1="2.5" y1="194.57" x2="2.5" y2="194.57"/><line class="cls-4" x1="17.31" y1="194.57" x2="187.65" y2="194.57"/><line class="cls-1" x1="195.06" y1="194.57" x2="195.06" y2="194.57"/><line class="cls-5" x1="195.06" y1="209.47" x2="195.06" y2="574.33"/><polygon class="cls-6" points="682.38 95.81 743.54 30.66 678.38 91.81 675.55 2.5 672.73 91.81 607.57 30.66 668.73 95.81 579.41 98.64 668.73 101.47 607.57 166.62 672.73 105.47 675.55 194.78 678.38 105.47 743.54 166.62 682.38 101.47 771.7 98.64 682.38 95.81"/></g></g></svg>